<?xml version="1.0" encoding="UTF-8"?>
<svg xmlns="http://www.w3.org/2000/svg" viewBox="0 0 236.76 225.93">
  <defs>
    <style>
      .cls-1, .cls-2, .cls-3 {
        stroke-width: 0px;
      }

      .cls-2 {
        fill: #ccc;
      }

      .cls-3 {
        fill: red;
      }
    </style>
  </defs>
  <g id="Ebene_16" data-name="Ebene 16">
    <path class="cls-2" d="M61.86,6c5.8,0,12.34,1.89,19.24,5.87l131.81,76.1c23.82,13.75,23.82,36.25,0,50l-131.81,76.1c-6.9,3.98-13.43,5.87-19.24,5.87-14.23,0-24.06-11.34-24.06-30.87V36.87c0-19.53,9.83-30.87,24.06-30.87M61.86,0c-8.86,0-16.69,3.68-22.05,10.35-5.24,6.53-8.02,15.7-8.02,26.52v152.2c0,10.82,2.77,19.99,8.02,26.52,5.36,6.68,13.19,10.35,22.05,10.35,7.09,0,14.57-2.24,22.24-6.67l131.81-76.1c13.45-7.77,20.86-18.49,20.86-30.2s-7.41-22.43-20.86-30.2L84.1,6.67c-7.67-4.43-15.15-6.67-22.24-6.67h0Z"/>
  </g>
  <g id="Ebene_1_Kopie_Kopie_Kopie_Kopie_Kopie_Kopie_2_Kopie" data-name="Ebene 1 Kopie Kopie Kopie Kopie Kopie Kopie 2 Kopie">
    <g>
      <g>
        <circle class="cls-3" cx="171" cy="91.97" r="20.5"/>
        <path class="cls-1" d="M171,71.97c11.03,0,20,8.97,20,20s-8.97,20-20,20-20-8.97-20-20,8.97-20,20-20M171,70.97c-11.6,0-21,9.4-21,21s9.4,21,21,21,21-9.4,21-21-9.4-21-21-21h0Z"/>
      </g>
      <g>
        <circle class="cls-3" cx="171" cy="133.97" r="20.5"/>
        <path class="cls-1" d="M171,113.97c11.03,0,20,8.97,20,20s-8.97,20-20,20-20-8.97-20-20,8.97-20,20-20M171,112.97c-11.6,0-21,9.4-21,21s9.4,21,21,21,21-9.4,21-21-9.4-21-21-21h0Z"/>
      </g>
      <g>
        <circle class="cls-3" cx="99" cy="91.97" r="20.5"/>
        <path class="cls-1" d="M99,71.97c11.03,0,20,8.97,20,20s-8.97,20-20,20-20-8.97-20-20,8.97-20,20-20M99,70.97c-11.6,0-21,9.4-21,21s9.4,21,21,21,21-9.4,21-21-9.4-21-21-21h0Z"/>
      </g>
      <g>
        <circle class="cls-3" cx="99" cy="133.97" r="20.5"/>
        <path class="cls-1" d="M99,113.97c11.03,0,20,8.97,20,20s-8.97,20-20,20-20-8.97-20-20,8.97-20,20-20M99,112.97c-11.6,0-21,9.4-21,21s9.4,21,21,21,21-9.4,21-21-9.4-21-21-21h0Z"/>
      </g>
      <g>
        <circle class="cls-3" cx="207" cy="112.97" r="20.5"/>
        <path class="cls-1" d="M207,92.97c11.03,0,20,8.97,20,20s-8.97,20-20,20-20-8.97-20-20,8.97-20,20-20M207,91.97c-11.6,0-21,9.4-21,21s9.4,21,21,21,21-9.4,21-21-9.4-21-21-21h0Z"/>
      </g>
      <g>
        <circle class="cls-3" cx="135" cy="112.97" r="20.5"/>
        <path class="cls-1" d="M135,92.97c11.03,0,20,8.97,20,20s-8.97,20-20,20-20-8.97-20-20,8.97-20,20-20M135,91.97c-11.6,0-21,9.4-21,21s9.4,21,21,21,21-9.4,21-21-9.4-21-21-21h0Z"/>
      </g>
      <g>
        <circle class="cls-3" cx="63" cy="112.97" r="20.5"/>
        <path class="cls-1" d="M63,92.97c11.03,0,20,8.97,20,20s-8.97,20-20,20-20-8.97-20-20,8.97-20,20-20M63,91.97c-11.6,0-21,9.4-21,21s9.4,21,21,21,21-9.4,21-21-9.4-21-21-21h0Z"/>
      </g>
      <g>
        <circle class="cls-3" cx="135" cy="154.97" r="20.5"/>
        <path class="cls-1" d="M135,134.97c11.03,0,20,8.97,20,20s-8.97,20-20,20-20-8.97-20-20,8.97-20,20-20M135,133.97c-11.6,0-21,9.4-21,21s9.4,21,21,21,21-9.4,21-21-9.4-21-21-21h0Z"/>
      </g>
      <g>
        <circle class="cls-3" cx="135" cy="70.97" r="20.5"/>
        <path class="cls-1" d="M135,50.97c11.03,0,20,8.97,20,20s-8.97,20-20,20-20-8.97-20-20,8.97-20,20-20M135,49.97c-11.6,0-21,9.4-21,21s9.4,21,21,21,21-9.4,21-21-9.4-21-21-21h0Z"/>
      </g>
    </g>
  </g>
</svg>